<svg xmlns="http://www.w3.org/2000/svg" xmlns:xlink="http://www.w3.org/1999/xlink" width="960" height="320.52"><rect width="960" height="320.52" rx="5" ry="5" class="a"/><svg y="0%" x="0%"><circle cx="20" cy="20" r="6" fill="#ff5f58"/><circle cx="40" cy="20" r="6" fill="#ffbd2e"/><circle cx="60" cy="20" r="6" fill="#18c132"/></svg><svg height="260.52" viewBox="0 0 92 26.052" width="920" x="15" xmlns="http://www.w3.org/2000/svg" xmlns:xlink="http://www.w3.org/1999/xlink" y="50"><style>.a{fill:#282d35}.h,.n,.q{white-space:pre}.h{fill:#00afff;font-weight:700}.n,.q{fill:#b9c0cb}.q{fill:#afaf87}.r{fill:#303030}.v,.w{fill:#d7d7d7;white-space:pre}.w{fill:#b9bfca}</style><g font-family="Monaco,Consolas,Menlo,'Bitstream Vera Sans Mono','Powerline Symbols',monospace" font-size="1.67"><defs><symbol id="a"><path fill="transparent" d="M0 0h92v13H0z"/></symbol><symbol id="b"><path fill="#6f7683" d="M0 0h1.102v2.171H0z"/></symbol></defs><path class="a" d="M0 0h92v26.052H0z"/><svg width="92"><svg><use xlink:href="#a"/><use xlink:href="#b" x="2.996" y="4.317"/><text y="1.67" class="h">~Play</text><text x="5.01" y="1.67" style="white-space:pre" fill="#0087af">/</text><text x="6.012" y="1.67" class="h">Cpp-CLion</text><text x="16.032" y="1.67" style="white-space:pre" fill="gray">---------------------------------------------------------------------------</text><text y="3.841" style="white-space:pre" fill="#5fd700">&gt;</text><text x="2.004" y="3.841" style="white-space:pre" fill="#a8cc8c">clion</text><text x="8.016" y="3.841" style="white-space:pre" fill="#d290e4" text-decoration="underline">.</text><text x="10.02" y="3.841" class="n">:</text><text y="6.012" style="white-space:pre" fill="#87afd7" font-weight="700">&gt;</text><text x="2.004" y="6.012" style="white-space:pre" fill="#b9c0cb" font-weight="700">:</text><text x="2.004" y="8.183" class="q">3/3</text><text x="6.012" y="8.183" class="q">(0)</text><path class="r" d="M0 8.684h1v2.171H0z"/><text y="10.354" style="white-space:pre" fill="#d7005f" font-weight="700">&gt;</text><path class="r" d="M1.002 8.684h1v2.171h-1z"/><text x="1.002" y="10.354" class="n"></text><path class="r" d="M2.004 8.684h1v2.171h-1z"/><text x="2.004" y="10.354" style="white-space:pre" fill="#afd7af" font-weight="700">:</text><path class="r" d="M3.006 8.684h32v2.171h-32z"/><text x="3.006" y="10.354" style="white-space:pre" fill="#b9bfca" font-weight="700">bg -- alias -g &apos;&amp;&gt;/dev/null &amp;&apos;</text><path class="r" d="M0 10.855h1v2.171H0z"/><text y="12.525" class="n"></text><text x="2.004" y="12.525" class="v">:</text><text x="3.006" y="12.525" class="w">bg!</text><text x="8.016" y="12.525" class="w">--</text><text x="11.022" y="12.525" class="w">alias</text><text x="17.034" y="12.525" class="w">-g</text><text x="20.04" y="12.525" class="w">&apos;&amp;&gt;/dev/null</text><text x="33.066" y="12.525" class="w">&amp;!&apos;</text><path class="r" d="M0 13.026h1v2.171H0z"/><text y="14.696" class="n"></text><text x="2.004" y="14.696" class="v">:</text><text x="3.006" y="14.696" class="w">n</text><text x="8.016" y="14.696" class="w">--</text><text x="11.022" y="14.696" class="w">alias</text><text x="17.034" y="14.696" class="w">-g</text><text x="20.04" y="14.696" class="w">&apos;/dev/null&apos;</text></svg></svg></g></svg></svg>