<svg xmlns="http://www.w3.org/2000/svg" xmlns:xlink="http://www.w3.org/1999/xlink" width="960" height="667.88"><rect width="960" height="667.88" rx="5" ry="5" class="a"/><svg y="0%" x="0%"><circle cx="20" cy="20" r="6" fill="#ff5f58"/><circle cx="40" cy="20" r="6" fill="#ffbd2e"/><circle cx="60" cy="20" r="6" fill="#18c132"/></svg><svg height="607.88" viewBox="0 0 92 60.788" width="920" x="15" xmlns="http://www.w3.org/2000/svg" xmlns:xlink="http://www.w3.org/1999/xlink" y="50"><style>.a{fill:#282d35}.h,.i{fill:#be84ff;white-space:pre}.i{fill:#f92672}.j,.k,.l,.m,.n,.o{fill:#e6db74;white-space:pre}.k,.l,.m,.n,.o{fill:#fd971f}.l,.m,.n,.o{fill:#f8f8f2}.m,.n,.o{fill:#66d9ef}.n,.o{fill:#a6e22e}.o{fill:#75715e}</style><g font-family="Monaco,Consolas,Menlo,'Bitstream Vera Sans Mono','Powerline Symbols',monospace" font-size="1.67"><defs><symbol id="a"><path fill="transparent" d="M0 0h92v28H0z"/></symbol><symbol id="b"><path fill="#6f7683" d="M0 0h1.102v2.171H0z"/></symbol></defs><path class="a" d="M0 0h92v60.788H0z"/><svg width="92"><svg><use xlink:href="#a"/><use xlink:href="#b" x="58.996" y="58.592"/><text y="1.67" class="h">OPEN</text><text x="4.008" y="1.67" class="i">(</text><text x="5.01" y="1.67" class="j">2</text><text x="6.012" y="1.67" class="i">)</text><text x="32.064" y="1.67" class="k">Linux</text><text x="38.076" y="1.67" class="k">Programmer&apos;s</text><text x="51.102" y="1.67" class="k">Manual</text><text x="82.164" y="1.67" class="h">OPEN</text><text x="86.172" y="1.67" class="i">(</text><text x="87.174" y="1.67" class="j">2</text><text x="88.176" y="1.67" class="i">)</text><text y="6.012" class="k">NAME</text><text x="7.014" y="8.183" class="l">open,</text><text x="13.026" y="8.183" class="l">openat,</text><text x="21.042" y="8.183" class="l">creat</text><text x="27.054" y="8.183" class="l">-</text><text x="29.058" y="8.183" class="l">open</text><text x="34.068" y="8.183" class="l">and</text><text x="38.076" y="8.183" class="l">possibly</text><text x="47.094" y="8.183" class="l">create</text><text x="54.108" y="8.183" class="l">a</text><text x="56.112" y="8.183" class="l">file</text><text y="12.525" class="k">SYNOPSIS</text><text x="7.014" y="14.696" class="i">#include</text><text x="16.032" y="14.696" class="j">&lt;fcntl.h&gt;</text><text x="7.014" y="19.038" class="m">int</text><text x="11.022" y="19.038" class="n">open</text><text x="15.03" y="19.038" class="l">(</text><text x="16.032" y="19.038" class="i">const</text><text x="22.044" y="19.038" class="m">char</text><text x="27.054" y="19.038" class="i">*</text><text x="28.056" y="19.038" class="k">pathname</text><text x="36.072" y="19.038" class="l">,</text><text x="38.076" y="19.038" class="m">int</text><text x="42.084" y="19.038" class="k">flags</text><text x="47.094" y="19.038" class="l">);</text><text x="7.014" y="21.209" class="m">int</text><text x="11.022" y="21.209" class="n">open</text><text x="15.03" y="21.209" class="l">(</text><text x="16.032" y="21.209" class="i">const</text><text x="22.044" y="21.209" class="m">char</text><text x="27.054" y="21.209" class="i">*</text><text x="28.056" y="21.209" class="k">pathname</text><text x="36.072" y="21.209" class="l">,</text><text x="38.076" y="21.209" class="m">int</text><text x="42.084" y="21.209" class="k">flags</text><text x="47.094" y="21.209" class="l">,</text><text x="49.098" y="21.209" class="n">mode_t</text><text x="56.112" y="21.209" class="k">mode</text><text x="60.12" y="21.209" class="l">);</text><text x="7.014" y="25.551" class="m">int</text><text x="11.022" y="25.551" class="n">creat</text><text x="16.032" y="25.551" class="l">(</text><text x="17.034" y="25.551" class="i">const</text><text x="23.046" y="25.551" class="m">char</text><text x="28.056" y="25.551" class="i">*</text><text x="29.058" y="25.551" class="k">pathname</text><text x="37.074" y="25.551" class="l">,</text><text x="39.078" y="25.551" class="n">mode_t</text><text x="46.092" y="25.551" class="k">mode</text><text x="50.1" y="25.551" class="l">);</text><text x="7.014" y="29.893" class="m">int</text><text x="11.022" y="29.893" class="n">openat</text><text x="17.034" y="29.893" class="l">(</text><text x="18.036" y="29.893" class="m">int</text><text x="22.044" y="29.893" class="k">dirfd</text><text x="27.054" y="29.893" class="l">,</text><text x="29.058" y="29.893" class="i">const</text><text x="35.07" y="29.893" class="m">char</text><text x="40.08" y="29.893" class="i">*</text><text x="41.082" y="29.893" class="k">pathname</text><text x="49.098" y="29.893" class="l">,</text><text x="51.102" y="29.893" class="m">int</text><text x="55.11" y="29.893" class="k">flags</text><text x="60.12" y="29.893" class="l">);</text><text x="7.014" y="32.064" class="m">int</text><text x="11.022" y="32.064" class="n">openat</text><text x="17.034" y="32.064" class="l">(</text><text x="18.036" y="32.064" class="m">int</text><text x="22.044" y="32.064" class="k">dirfd</text><text x="27.054" y="32.064" class="l">,</text><text x="29.058" y="32.064" class="i">const</text><text x="35.07" y="32.064" class="m">char</text><text x="40.08" y="32.064" class="i">*</text><text x="41.082" y="32.064" class="k">pathname</text><text x="49.098" y="32.064" class="l">,</text><text x="51.102" y="32.064" class="m">int</text><text x="55.11" y="32.064" class="k">flags</text><text x="60.12" y="32.064" class="l">,</text><text x="62.124" y="32.064" class="n">mode_t</text><text x="69.138" y="32.064" class="k">mode</text><text x="73.146" y="32.064" class="l">);</text><text x="7.014" y="36.406" class="o">/*</text><text x="10.02" y="36.406" class="o">Documented</text><text x="21.042" y="36.406" class="o">separately,</text><text x="33.066" y="36.406" class="o">in</text><text x="36.072" y="36.406" class="o">openat2(2):</text><text x="48.096" y="36.406" class="o">*/</text><text x="7.014" y="38.577" class="m">int</text><text x="11.022" y="38.577" class="n">openat2</text><text x="18.036" y="38.577" class="l">(</text><text x="19.038" y="38.577" class="m">int</text><text x="23.046" y="38.577" class="k">dirfd</text><text x="28.056" y="38.577" class="l">,</text><text x="30.06" y="38.577" class="i">const</text><text x="36.072" y="38.577" class="m">char</text><text x="41.082" y="38.577" class="i">*</text><text x="42.084" y="38.577" class="k">pathname</text><text x="50.1" y="38.577" class="l">,</text><text x="19.038" y="40.748" class="i">const</text><text x="25.05" y="40.748" class="m">struct</text><text x="32.064" y="40.748" class="l">open_how</text><text x="41.082" y="40.748" class="i">*</text><text x="42.084" y="40.748" class="k">how</text><text x="45.09" y="40.748" class="l">,</text><text x="47.094" y="40.748" class="n">size_t</text><text x="54.108" y="40.748" class="k">size</text><text x="58.116" y="40.748" class="l">);</text><text x="3.006" y="45.09" class="l">Feature</text><text x="11.022" y="45.09" class="l">Test</text><text x="16.032" y="45.09" class="l">Macro</text><text x="22.044" y="45.09" class="l">Requirements</text><text x="35.07" y="45.09" class="l">for</text><text x="39.078" y="45.09" class="l">glibc</text><text x="45.09" y="45.09" class="l">(see</text><text x="50.1" y="45.09" class="n">feature_test_macros</text><text x="69.138" y="45.09" class="i">(</text><text x="70.14" y="45.09" class="h">7</text><text x="71.142" y="45.09" class="i">)</text><text x="72.144" y="45.09" class="l">):</text><text x="7.014" y="49.432" class="n">openat</text><text x="13.026" y="49.432" class="i">()</text><text x="15.03" y="49.432" class="l">:</text><text x="11.022" y="51.603" class="l">Since</text><text x="17.034" y="51.603" class="l">glibc</text><text x="23.046" y="51.603" class="l">2.10:</text><text x="15.03" y="53.774" class="l">_POSIX_C_SOURCE</text><text x="31.062" y="53.774" class="l">&gt;=</text><text x="34.068" y="53.774" class="l">200809L</text><text x="11.022" y="55.945" class="l">Before</text><text x="18.036" y="55.945" class="l">glibc</text><text x="24.048" y="55.945" class="l">2.10:</text><text x="15.03" y="58.116" class="l">_ATFILE_SOURCE</text><path fill="#b9c0cb" d="M0 58.617h59v2.171H0z"/><text y="60.287" style="white-space:pre" fill="#282d35">Manual page open(2) line 1 (press h for help or q to quit)</text></svg></svg></g></svg></svg>