<?xml version="1.0" standalone="no"?>
<!DOCTYPE svg PUBLIC "-//W3C//DTD SVG 20010904//EN"
 "http://www.w3.org/TR/2001/REC-SVG-20010904/DTD/svg10.dtd">
<svg version="1.0" xmlns="http://www.w3.org/2000/svg"
 width="500.000000pt" height="500.000000pt" viewBox="0 0 500.000000 500.000000"
 preserveAspectRatio="xMidYMid meet">
<metadata>
Created by potrace 1.11, written by Peter Selinger 2001-2013
</metadata>
<g transform="translate(0.000000,500.000000) scale(0.100000,-0.100000)"
fill="#000000" stroke="none">
<path d="M0 4540 c1 -253 5 -460 9 -460 16 0 21 14 10 27 -9 10 -8 18 5 32 14
16 21 38 25 84 1 4 7 7 15 7 8 0 16 16 19 43 3 24 13 56 21 72 11 21 12 32 4
42 -8 10 -7 13 3 13 20 0 20 62 0 77 -14 10 -10 13 24 14 22 1 32 3 23 6 -17
4 -23 16 -19 37 1 5 -4 13 -11 17 -10 7 -10 9 0 9 6 0 12 7 12 16 0 8 5 12 10
9 6 -4 7 -11 4 -17 -4 -7 -2 -8 5 -4 6 4 18 2 26 -4 9 -8 15 -8 15 -2 0 6 -6
12 -12 15 -10 3 -8 13 6 41 11 20 23 36 28 36 11 0 10 -7 -2 -31 -8 -13 -8
-24 0 -37 10 -15 11 -14 7 6 -3 12 -1 22 4 22 5 0 9 8 9 18 0 24 19 42 36 35
9 -3 12 0 9 8 -8 23 11 42 44 43 18 1 31 6 31 14 0 7 -4 10 -10 7 -5 -3 -10
-2 -10 3 0 6 7 13 16 16 22 9 24 8 24 -10 0 -23 20 -6 21 19 1 18 2 19 6 4 3
-12 9 -15 16 -9 18 14 66 20 70 9 2 -6 13 0 25 13 12 13 22 18 22 12 0 -7 5
-12 11 -12 5 0 8 4 5 8 -2 4 4 9 15 9 11 1 17 -2 14 -8 -4 -5 -1 -9 4 -9 6 0
11 5 11 11 0 6 9 8 20 4 29 -9 45 4 24 19 -12 9 -14 15 -6 20 7 4 12 2 12 -3
0 -6 12 -11 26 -11 21 0 24 4 19 20 -5 14 -2 20 10 20 9 0 14 -4 10 -9 -3 -5
-1 -12 5 -16 5 -3 10 1 10 11 0 12 6 15 21 11 12 -3 22 0 25 8 4 11 9 10 23
-4 21 -21 71 -20 105 3 17 11 43 14 95 12 41 -2 74 1 78 7 4 6 -4 8 -20 5 -15
-3 -24 -2 -22 2 3 4 31 10 62 14 32 4 69 13 83 21 l25 14 -27 1 c-21 0 -28 5
-28 20 0 16 7 20 30 20 17 0 30 4 30 9 0 6 -241 10 -605 11 l-606 1 1 -461z
m707 379 c1 -22 1 -23 -4 -1 -2 12 -9 20 -14 17 -5 -4 -9 -1 -9 5 0 23 25 3
27 -21z m-60 5 c-3 -3 -12 -4 -19 -1 -8 3 -5 6 6 6 11 1 17 -2 13 -5z m193
-54 c0 -5 -4 -10 -10 -10 -5 0 -10 5 -10 10 0 6 5 10 10 10 6 0 10 -4 10 -10z
m-380 -80 c0 -5 -4 -10 -10 -10 -5 0 -10 5 -10 10 0 6 5 10 10 10 6 0 10 -4
10 -10z"/>
<path d="M1330 4988 c0 -9 9 -18 20 -21 11 -3 20 -10 20 -16 0 -6 -7 -8 -16
-4 -22 8 -64 -17 -64 -39 0 -10 5 -18 11 -18 8 0 8 -4 0 -14 -7 -8 -9 -25 -5
-41 6 -25 10 -27 48 -22 91 12 269 48 309 63 23 9 51 17 62 19 68 8 101 21
133 50 19 18 31 38 28 44 -11 17 -383 15 -389 -1 -4 -10 -8 -9 -16 2 -5 8 -14
11 -18 6 -4 -5 -2 -11 5 -13 27 -10 10 -33 -33 -44 -25 -6 -48 -15 -51 -20 -3
-5 -16 -9 -30 -9 -16 0 -23 4 -18 11 3 6 14 9 24 6 12 -3 22 4 29 20 14 32 14
33 -7 33 -10 0 -23 5 -30 12 -9 9 -12 8 -12 -4z"/>
<path d="M1420 4986 c0 -9 -4 -16 -10 -16 -5 0 -10 -5 -10 -12 0 -9 3 -9 11
-1 6 6 18 9 25 6 19 -7 18 11 -1 27 -12 10 -15 10 -15 -4z"/>
<path d="M3125 4984 c143 -41 264 -86 304 -116 26 -18 49 -31 54 -30 14 4 102
-21 125 -36 29 -19 28 -28 -5 -40 -34 -11 -141 11 -157 33 -6 8 -23 19 -38 24
-23 9 -28 8 -28 -5 0 -9 -13 -21 -30 -27 -20 -8 -31 -20 -36 -40 -5 -25 -1
-33 22 -53 16 -12 50 -26 77 -29 51 -7 155 -45 192 -69 12 -8 50 -26 85 -41
34 -14 117 -53 183 -86 67 -33 125 -58 130 -56 5 1 23 37 41 79 36 88 86 151
111 142 9 -4 14 -13 11 -20 -3 -8 1 -14 8 -14 8 0 16 5 18 10 2 6 11 4 23 -5
11 -9 14 -14 7 -10 -16 8 -27 -22 -14 -38 6 -6 12 -16 14 -22 1 -5 7 -9 12 -7
44 15 64 13 70 -5 8 -26 54 -59 94 -68 35 -7 39 -14 20 -34 -9 -10 -10 -15 -2
-18 7 -2 10 -20 7 -47 -5 -39 -2 -46 21 -61 31 -21 28 -32 -4 -15 -12 6 -24 9
-27 6 -3 -3 6 -11 21 -17 16 -8 25 -18 21 -26 -2 -8 6 -34 19 -58 14 -24 22
-46 19 -49 -3 -3 2 -17 11 -31 12 -18 25 -25 49 -25 17 0 27 -4 21 -8 -6 -4
-11 -16 -11 -27 0 -11 5 -23 11 -27 8 -5 7 -8 -1 -8 -7 0 -13 -11 -13 -25 0
-14 -7 -28 -15 -31 -8 -4 -15 -12 -15 -20 0 -8 -4 -14 -9 -14 -17 0 -5 -56 17
-80 13 -14 20 -31 17 -41 -4 -11 2 -26 14 -38 12 -12 21 -27 21 -35 0 -8 5
-16 11 -18 6 -2 15 -26 20 -53 5 -28 14 -52 19 -53 31 -11 37 -33 35 -119 -2
-57 2 -100 11 -122 8 -18 11 -37 8 -42 -3 -5 0 -9 5 -9 6 0 11 -6 11 -13 0 -7
13 -29 29 -48 25 -30 30 -45 29 -87 0 -32 -5 -56 -14 -63 -8 -6 -12 -20 -9
-30 3 -9 1 -20 -4 -23 -6 -4 -8 -13 -4 -21 3 -8 0 -15 -6 -15 -6 0 -10 -3 -10
-7 6 -39 -4 -65 -31 -81 -16 -9 -30 -24 -30 -33 0 -9 -7 -19 -15 -23 -8 -3
-15 -14 -15 -25 0 -11 -5 -23 -10 -26 -6 -4 -7 -11 -4 -17 14 -23 -1 -295 -18
-315 -6 -7 -8 -19 -5 -27 3 -8 0 -20 -8 -26 -8 -6 -11 -18 -8 -26 3 -9 -1 -14
-13 -14 -14 0 -15 -3 -6 -8 7 -5 10 -16 6 -25 -6 -18 -24 -23 -24 -8 0 14 -64
-49 -68 -67 -6 -28 -2 -75 7 -86 15 -19 23 -56 12 -56 -5 0 -13 9 -16 20 -3
11 -13 20 -21 20 -8 0 -14 9 -14 20 0 15 -7 20 -26 20 -19 0 -25 -4 -20 -15 3
-9 0 -15 -9 -15 -8 0 -15 5 -15 10 0 6 -4 10 -10 10 -5 0 -7 -13 -3 -30 4 -24
2 -30 -12 -30 -13 0 -16 7 -13 32 2 26 -1 33 -17 37 -11 2 -23 8 -27 15 -9 14
-44 -23 -63 -67 -8 -17 -15 -30 -15 -27 -1 3 -3 13 -5 23 -2 10 -9 25 -16 33
-10 12 -14 12 -20 2 -5 -8 -9 4 -9 31 0 27 6 51 17 63 15 16 15 21 1 56 -15
38 -14 41 18 108 37 76 44 124 18 124 -12 0 -15 7 -11 26 2 14 -1 31 -7 37 -6
7 -12 25 -13 40 -2 23 3 30 27 38 15 6 31 16 33 23 3 7 31 18 63 26 33 7 64
17 69 22 10 9 -24 45 -62 66 -12 7 -16 21 -15 51 2 23 -1 58 -7 78 -5 21 -15
63 -21 93 -7 30 -18 61 -24 69 -6 7 -9 26 -8 41 2 16 -2 31 -8 35 -5 3 -8 11
-4 16 3 5 -2 22 -12 37 -27 40 -40 65 -47 93 -9 35 -63 67 -136 78 -35 6 -73
17 -86 25 -20 13 -24 13 -38 -1 -14 -14 -18 -14 -47 0 -17 9 -38 13 -46 10
-10 -3 -14 2 -14 19 0 29 -17 48 -36 41 -8 -3 -43 0 -78 7 -55 10 -72 10 -114
-4 -26 -9 -76 -18 -109 -20 -34 -2 -69 -8 -79 -14 -15 -8 -13 -11 15 -17 26
-5 32 -11 28 -26 -4 -16 0 -19 28 -19 19 0 36 4 39 9 3 5 43 12 89 16 68 5 92
3 123 -10 38 -16 38 -17 16 -28 -16 -7 -37 -7 -73 1 -45 11 -62 9 -150 -13
-55 -14 -118 -33 -140 -42 -45 -18 -109 -10 -230 29 l-66 21 -164 -27 c-109
-18 -252 -52 -429 -102 -146 -42 -267 -77 -268 -79 -5 -4 70 -149 79 -153 3
-1 -36 -67 -88 -145 -51 -78 -93 -146 -93 -151 0 -4 8 -5 18 -1 86 36 267 103
270 101 2 -2 -72 -33 -164 -70 -93 -36 -169 -64 -171 -63 -2 3 27 49 124 198
24 37 43 73 43 81 0 17 -67 145 -81 153 -5 4 -119 -59 -252 -139 -134 -80
-249 -146 -256 -146 -7 0 -11 8 -9 17 2 10 75 60 169 118 237 143 299 183 299
193 0 4 -52 21 -115 36 -63 15 -115 32 -115 38 0 14 66 6 188 -22 l104 -24 86
22 c169 44 432 126 425 132 -19 16 -268 82 -400 107 -137 25 -146 25 -179 9
-28 -13 -67 -16 -192 -16 -102 0 -162 -4 -169 -11 -6 -6 -66 -22 -132 -35 -67
-13 -126 -26 -130 -28 -5 -3 -35 -38 -67 -78 -140 -174 -197 -236 -210 -231
-8 3 -16 -5 -20 -24 -4 -15 -14 -38 -22 -51 -11 -16 -14 -50 -13 -127 2 -108
-5 -124 -33 -83 -12 16 -16 48 -17 113 -1 101 -4 102 -14 3 -5 -55 -9 -65 -19
-55 -23 22 -35 53 -42 105 -5 39 -11 53 -27 58 -24 7 -36 -9 -38 -51 -1 -29
-1 -29 -9 -5 l-7 25 -7 -25 c-3 -14 -5 -61 -4 -105 2 -121 -1 -165 -12 -165
-5 0 -10 8 -11 18 0 14 -2 14 -9 -3 -5 -11 -9 -14 -9 -7 -2 32 -21 -4 -32 -61
-9 -41 -15 -55 -18 -42 -6 20 -7 20 -24 3 -9 -10 -13 -18 -8 -18 5 0 10 -19
10 -42 0 -24 5 -59 11 -78 15 -52 12 -50 -20 10 -49 92 -70 141 -69 158 0 14
2 13 10 -3 8 -17 9 -17 4 5 -2 14 -5 32 -6 40 0 10 -3 8 -8 -5 -6 -15 -10 -10
-16 25 l-9 45 -3 -40 c-2 -22 -13 -60 -24 -84 -11 -24 -18 -49 -15 -57 3 -7 1
-16 -5 -19 -5 -4 -7 -11 -4 -16 4 -5 -1 -9 -9 -9 -15 0 -21 -17 -17 -48 1 -7
-6 -15 -16 -19 -10 -4 -22 -13 -26 -20 -7 -12 -12 -11 -30 4 -11 10 -17 12
-12 4 6 -10 1 -12 -26 -6 l-34 8 25 -22 25 -21 -32 17 c-39 21 -40 26 -10 42
13 7 15 10 3 6 -12 -3 -25 4 -40 22 -22 29 -23 31 -25 63 -1 22 -36 28 -44 8
-2 -7 -8 -9 -13 -5 -5 5 -1 13 8 18 10 5 15 16 11 25 -5 12 -7 12 -20 -3 -10
-13 -16 -15 -19 -5 -8 19 -26 14 -20 -5 7 -22 -11 -45 -47 -61 -34 -15 -59
-16 -37 -2 13 8 11 11 -7 16 -13 4 -23 11 -23 16 0 5 -9 7 -20 3 -15 -5 -18
-3 -14 9 3 9 1 16 -5 16 -7 0 -23 11 -36 24 -23 23 -44 19 -30 -4 3 -5 2 -10
-3 -10 -6 0 -13 7 -16 16 -4 10 -13 14 -28 10 -13 -3 -17 -3 -10 0 19 9 14 24
-9 24 -11 0 -17 5 -14 10 3 6 -1 10 -9 10 -14 0 -16 -139 -16 -1345 l0 -1345
1112 1 c624 0 1104 4 1093 9 -11 5 -65 9 -121 9 -88 1 -107 4 -145 26 -125 70
-119 68 -194 62 -52 -4 -102 -18 -187 -51 -64 -25 -119 -46 -123 -46 -32 0
100 92 195 135 36 17 67 33 68 38 2 4 9 7 16 7 16 0 92 60 89 70 -4 13 80 95
94 92 8 -2 11 3 6 15 -5 14 -3 16 7 6 9 -8 19 -9 30 -3 9 5 41 12 71 15 29 4
56 8 60 11 4 2 10 0 14 -6 8 -12 55 -13 55 -1 0 5 17 12 38 15 20 4 46 10 57
13 14 3 17 2 10 -5 -5 -6 -21 -13 -35 -15 -14 -3 -8 -5 15 -4 22 1 43 7 47 12
4 6 8 2 8 -8 0 -10 5 -15 10 -12 6 4 8 11 4 16 -3 6 3 5 15 -3 12 -7 19 -18
17 -24 -3 -7 10 -15 32 -19 64 -12 93 -91 45 -122 -13 -8 -20 -20 -17 -25 9
-14 9 -92 0 -106 -4 -6 -1 -22 6 -34 7 -13 13 -32 13 -43 0 -20 8 -20 1298
-23 l1297 -2 0 2500 0 2500 -962 -1 c-848 -1 -957 -3 -913 -15z m1449 -873 c7
-10 -33 -23 -46 -15 -5 3 -6 10 -3 15 8 12 42 12 49 0z m-1364 -740 c0 -17
-18 -21 -24 -6 -3 9 0 15 9 15 8 0 15 -4 15 -9z m487 -27 c-16 -9 -32 -13 -35
-9 -9 9 19 25 43 24 16 0 15 -2 -8 -15z m-444 -75 c23 -12 54 -30 69 -40 25
-19 29 -19 152 -1 130 19 164 16 135 -13 -20 -20 -187 -56 -259 -55 -30 0 -76
-5 -101 -12 -45 -11 -47 -10 -142 41 -54 29 -97 56 -97 60 0 12 70 31 130 34
30 2 59 4 63 5 4 1 27 -8 50 -19z m575 -65 c57 -16 1 -59 -86 -66 -49 -4 -55
-2 -73 24 -11 15 -17 32 -14 38 7 11 136 14 173 4z m165 -105 c-6 -6 -30 -12
-52 -13 -24 -1 -54 -11 -71 -24 -16 -12 -36 -22 -45 -22 -8 0 -15 -4 -15 -10
0 -5 5 -10 10 -10 6 0 9 -10 9 -22 -1 -17 -2 -19 -6 -5 -3 13 -11 15 -30 11
-23 -6 -24 -5 -14 15 9 16 9 21 -2 21 -7 0 -18 -5 -23 -10 -6 -6 -44 -13 -85
-17 -71 -5 -315 -66 -332 -82 -4 -4 12 -16 37 -25 25 -10 48 -21 51 -25 2 -5
-67 -35 -155 -67 -88 -32 -160 -61 -160 -65 0 -3 37 -9 83 -12 81 -7 85 -6
221 44 76 27 143 48 148 47 9 -3 -143 -63 -277 -109 l-40 -14 88 -5 88 -5 -33
-47 c-31 -44 -62 -67 -75 -55 -3 3 7 22 22 41 15 19 24 40 21 45 -4 6 -38 8
-84 5 -42 -3 -124 -1 -182 4 l-104 9 -166 -104 c-91 -58 -187 -119 -215 -136
-27 -17 -59 -38 -70 -48 -11 -9 -40 -20 -65 -24 l-45 -7 -27 56 c-15 31 -31
56 -36 56 -7 0 -334 -216 -410 -271 -17 -13 -38 -63 -82 -200 -32 -101 -58
-184 -57 -185 1 -2 72 28 157 65 85 37 247 107 360 156 113 48 211 93 218 98
19 15 212 266 212 277 0 8 58 25 65 18 1 -1 -44 -61 -101 -133 -56 -71 -103
-133 -103 -137 -1 -7 241 90 444 177 98 43 305 113 513 174 l73 22 -7 60 c-7
58 -6 59 19 59 23 0 27 -5 33 -47 7 -47 0 -70 -27 -84 -8 -4 -106 -35 -219
-70 -184 -55 -315 -106 -731 -284 l-85 -36 -16 -102 c-8 -56 -18 -109 -22
-118 -5 -12 11 -27 64 -62 38 -26 70 -49 70 -51 0 -3 -14 -14 -30 -26 l-31
-22 -74 51 c-42 29 -80 49 -88 45 -22 -8 -30 12 -14 38 14 22 44 204 36 212
-4 4 -12 0 -419 -179 -140 -62 -265 -116 -278 -120 -12 -3 -29 -16 -36 -28
-12 -19 -153 -375 -159 -401 -1 -5 27 -15 63 -22 l65 -13 114 121 c64 67 137
133 165 149 28 17 127 77 220 134 92 58 173 102 179 98 5 -3 7 -1 4 4 -11 17
20 23 33 7 12 -13 10 -15 -6 -13 -4 0 -10 -4 -13 -9 -3 -5 -43 -32 -89 -61
-57 -35 -89 -50 -103 -46 -14 5 -17 2 -13 -8 8 -21 -104 -88 -137 -81 -19 3
-20 3 -5 -4 16 -7 12 -13 -33 -41 -29 -19 -60 -34 -70 -35 -10 -1 -69 -55
-131 -121 l-112 -120 29 -12 c15 -7 36 -12 46 -13 10 0 19 -6 21 -12 36 -133
31 -152 -35 -122 -58 26 -119 71 -119 88 0 8 -14 17 -30 20 -17 3 -43 8 -58
11 -16 3 -39 19 -50 35 -27 36 -27 40 -3 40 10 0 23 6 29 13 28 34 283 760
271 771 -2 2 -69 -47 -149 -110 -105 -82 -150 -112 -164 -108 -11 4 -16 2 -12
-4 3 -6 2 -31 -4 -57 -6 -25 -13 -62 -16 -83 -14 -85 -32 -174 -38 -179 -10
-11 -7 18 19 151 14 71 24 131 21 133 -2 2 -36 -23 -74 -56 -67 -58 -92 -72
-92 -52 0 13 26 32 33 24 4 -3 7 -2 7 4 0 5 32 38 72 72 70 62 72 65 164 256
91 191 115 229 291 463 34 46 67 91 72 100 5 9 12 15 14 12 3 -3 -51 -82 -120
-175 -98 -134 -140 -201 -195 -315 -86 -178 -118 -250 -112 -250 3 0 44 30 91
68 187 147 185 146 195 131 8 -11 9 -11 5 3 -3 9 3 24 14 34 10 9 80 102 154
205 75 103 151 201 171 217 31 26 307 152 332 152 5 0 75 47 154 103 124 89
199 133 184 108 -2 -3 -58 -44 -124 -91 -66 -47 -116 -87 -111 -88 5 -2 61 12
123 32 63 20 117 36 121 36 4 0 5 -13 2 -30 -4 -17 -2 -30 3 -30 5 0 96 32
201 70 105 39 206 70 224 70 19 0 105 21 192 46 222 65 312 87 354 85 19 -1
46 3 60 8 35 14 76 14 62 0z m-806 -95 c-3 -3 -12 -4 -19 -1 -8 3 -5 6 6 6 11
1 17 -2 13 -5z m-1767 -62 c0 -4 -10 -13 -22 -21 -23 -14 -23 -14 -4 8 20 22
26 25 26 13z m2515 -12 c3 -5 -7 -12 -22 -16 -15 -4 -34 -11 -40 -17 -7 -5
-13 -8 -14 -6 -9 43 -5 49 32 49 21 0 41 -4 44 -10z m85 0 c0 -5 -5 -10 -11
-10 -5 0 -7 5 -4 10 3 6 8 10 11 10 2 0 4 -4 4 -10z m-1510 -10 c-8 -5 -19
-10 -25 -10 -5 0 -3 5 5 10 8 5 20 10 25 10 6 0 3 -5 -5 -10z m-896 -26 c4 -9
5 -18 4 -19 -2 -2 -28 -17 -58 -35 -113 -68 -120 -73 -120 -105 0 -22 -3 -26
-10 -15 -11 18 -11 17 -43 -45 -14 -27 -26 -44 -27 -37 0 7 11 35 25 62 14 27
25 60 25 73 0 16 10 28 33 40 17 9 59 35 92 56 70 46 71 46 79 25z m-539 -56
c49 -58 48 -54 34 -108 -7 -27 -16 -50 -20 -50 -3 0 -9 19 -13 43 -4 23 -10
53 -13 67 -6 23 -5 24 13 10 18 -14 18 -14 5 2 -23 30 -34 9 -26 -51 4 -31 7
-78 7 -106 -4 -249 5 -307 79 -529 16 -49 28 -90 26 -93 -2 -2 -18 23 -35 54
-22 43 -39 103 -63 228 -30 153 -34 187 -34 341 0 136 3 175 15 190 8 10 10
15 3 11 -7 -5 -17 1 -23 13 -10 19 -9 20 7 12 10 -6 27 -21 38 -34z m-210
-138 c3 -5 1 -10 -4 -10 -6 0 -11 5 -11 10 0 6 2 10 4 10 3 0 8 -4 11 -10z
m292 -42 c-3 -8 -6 -5 -6 6 -1 11 2 17 5 13 3 -3 4 -12 1 -19z m-454 -9 c3
-12 3 -18 0 -15 -3 3 -12 -2 -20 -12 -10 -12 -13 -13 -9 -2 3 8 9 23 12 33 8
22 10 22 17 -4z m-646 -35 c-3 -3 -12 -4 -19 -1 -8 3 -5 6 6 6 11 1 17 -2 13
-5z m43 -24 c0 -5 -5 -10 -11 -10 -5 0 -7 5 -4 10 3 6 8 10 11 10 2 0 4 -4 4
-10z m1242 -12 c-7 -7 -12 -8 -12 -2 0 14 12 26 19 19 2 -3 -1 -11 -7 -17z
m111 -103 c3 -66 9 -137 13 -158 5 -29 3 -42 -11 -57 -10 -11 -21 -20 -25 -20
-11 0 -18 122 -9 148 6 15 13 21 21 16 10 -6 10 -4 3 7 -9 12 -9 197 0 187 1
-1 5 -57 8 -123z m-159 -7 c-37 -88 -41 -94 -49 -86 -9 8 68 168 81 168 2 0
-13 -37 -32 -82z m-549 53 c-3 -6 -11 -11 -16 -11 -5 0 -4 6 3 14 14 16 24 13
13 -3z m25 -46 c0 -5 -5 -3 -10 5 -8 12 -10 12 -10 1 0 -8 -2 -12 -5 -9 -3 3
-2 13 1 22 5 14 9 15 15 4 5 -7 9 -17 9 -23z m3245 -34 c4 -10 -2 -12 -25 -9
-27 4 -38 -4 -107 -80 -43 -47 -88 -99 -101 -116 -12 -17 -31 -34 -41 -38 -11
-4 -52 -49 -93 -100 -61 -76 -87 -100 -137 -127 -34 -18 -64 -31 -67 -28 -4 4
52 75 309 393 37 46 61 84 55 84 -7 -1 -61 -11 -120 -24 -98 -22 -130 -21 -95
1 6 4 66 20 132 34 135 30 280 35 290 10z m-2995 -42 c0 -6 -4 -7 -10 -4 -5 3
-10 11 -10 16 0 6 5 7 10 4 6 -3 10 -11 10 -16z m19 -102 c1 -16 -3 -26 -8
-23 -5 3 -7 15 -4 26 3 11 0 26 -6 33 -6 8 -8 17 -4 21 10 9 21 -22 22 -57z
m3495 -2 c-4 -8 -10 -15 -15 -15 -5 0 -9 7 -9 15 0 8 7 15 15 15 9 0 12 -6 9
-15z m-3346 -56 c-6 -16 -12 -28 -14 -26 -5 5 13 57 20 57 3 0 0 -14 -6 -31z
m3309 9 c-3 -8 -6 -5 -6 6 -1 11 2 17 5 13 3 -3 4 -12 1 -19z m-1147 -131 c0
-1 -28 -29 -62 -62 l-61 -60 54 62 c46 53 69 73 69 60z m1157 -29 c-3 -7 -5
-2 -5 12 0 14 2 19 5 13 2 -7 2 -19 0 -25z m-550 0 c-3 -8 -6 -5 -6 6 -1 11 2
17 5 13 3 -3 4 -12 1 -19z m110 -38 c-5 -22 -3 -30 8 -30 20 0 19 -12 -3 -41
-10 -13 -22 -33 -26 -44 -8 -20 -8 -20 -16 0 -7 20 -40 54 -40 42 0 -3 4 -17
9 -30 8 -21 4 -30 -31 -63 l-41 -39 7 28 c9 37 -7 27 -28 -18 -16 -32 -44 -51
-33 -22 2 6 -3 25 -12 40 -15 27 -15 28 22 63 20 19 37 40 37 45 0 6 4 8 9 4
5 -3 13 0 16 6 4 5 14 8 22 5 8 -3 11 -2 8 3 -5 8 79 81 93 81 2 0 2 -13 -1
-30z m-376 -117 c-36 -70 -43 -98 -33 -140 l7 -32 78 61 79 61 -4 -45 c-2 -38
-11 -54 -52 -97 -26 -29 -50 -50 -53 -47 -6 6 -48 -48 -62 -81 -6 -13 -17 -23
-25 -23 -8 0 -19 -7 -24 -16 -5 -9 -13 -16 -18 -16 -11 -1 -83 -47 -102 -66
-33 -31 -47 -31 -120 0 -85 35 -89 49 -28 96 43 32 63 41 51 22 -3 -5 0 -10 8
-10 10 0 13 7 10 19 -3 14 17 35 81 85 84 66 86 68 86 111 0 62 37 122 97 155
26 15 50 26 51 24 2 -1 -10 -29 -27 -61z m-511 12 c-24 -25 -46 -45 -49 -45
-3 0 15 20 39 45 24 25 46 45 49 45 3 0 -15 -20 -39 -45z m-2150 -91 c32 -45
63 -92 70 -103 12 -23 33 -20 23 4 -3 8 0 15 7 15 10 0 10 3 0 15 -10 12 -10
18 0 30 10 12 10 15 -1 15 -12 0 -12 2 0 9 8 5 15 18 16 29 0 11 8 27 18 36
15 15 18 13 41 -26 13 -24 30 -55 37 -70 7 -16 18 -28 24 -28 7 0 20 -9 30
-20 14 -16 15 -23 6 -34 -10 -12 -1 -38 42 -135 52 -115 54 -121 38 -143 -15
-22 -24 -71 -11 -63 4 2 19 -22 33 -53 15 -31 21 -49 14 -40 -10 12 -17 14
-24 7 -8 -8 -13 -7 -17 0 -4 6 -2 11 3 11 6 0 11 8 11 18 0 13 -2 14 -9 3 -5
-8 -14 -10 -21 -6 -8 5 -11 4 -7 -1 3 -6 2 -16 -4 -24 -7 -12 -9 -10 -9 8 0
15 -6 22 -20 22 -11 0 -20 -5 -20 -12 0 -6 -10 0 -23 13 -15 15 -22 34 -20 52
2 26 -5 32 -34 28 -7 -1 -13 3 -13 9 0 5 5 10 10 10 6 0 -3 25 -20 56 -16 31
-30 65 -30 74 0 10 -6 30 -14 45 -8 15 -12 34 -9 41 3 8 -1 14 -8 15 -8 1 -3
5 11 9 23 7 22 8 -10 9 -33 1 -39 7 -107 110 -39 59 -79 125 -87 146 l-16 38
20 -18 c12 -10 47 -56 80 -101z m220 70 c0 -8 -4 -12 -10 -9 -5 3 -10 10 -10
16 0 5 5 9 10 9 6 0 10 -7 10 -16z m2090 -48 c0 -3 -4 -8 -10 -11 -5 -3 -10
-1 -10 4 0 6 5 11 10 11 6 0 10 -2 10 -4z m-269 -49 c-6 -8 -8 -16 -6 -19 3
-3 -4 -8 -16 -11 -21 -6 -21 -6 2 19 24 25 39 34 20 11z m-1723 -76 c3 -8 -1
-12 -9 -9 -7 2 -15 10 -17 17 -3 8 1 12 9 9 7 -2 15 -10 17 -17z m2740 -106
c-6 -14 -13 -23 -15 -21 -5 5 15 46 22 46 3 0 -1 -11 -7 -25z m-2599 -97 c4
-13 11 -50 15 -82 5 -50 4 -57 -7 -47 -8 6 -25 33 -39 59 -23 43 -24 50 -10
70 18 28 30 28 41 0z m1824 -95 l36 -78 -35 -31 c-24 -23 -49 -33 -84 -38 -46
-6 -49 -8 -38 -26 13 -21 4 -32 -50 -61 -20 -11 -26 -10 -49 13 l-25 26 90 68
c50 37 90 70 88 71 -2 2 -60 -5 -130 -16 -82 -13 -136 -26 -154 -39 -61 -43
-220 -122 -235 -117 -16 7 -40 86 -29 97 4 4 64 37 134 73 70 37 130 70 133
75 3 5 16 -2 30 -16 13 -13 31 -24 40 -24 12 0 9 7 -11 23 l-27 24 129 25 c71
14 134 26 140 27 6 0 27 -34 47 -76z m72 13 l39 -17 -29 -24 c-17 -13 -33 -24
-37 -25 -9 0 -48 74 -48 90 0 7 6 8 18 1 9 -5 35 -16 57 -25z m-884 -8 c39 -6
65 -14 59 -18 -10 -6 -159 15 -168 25 -9 8 35 6 109 -7z m1237 -9 c-11 -7 -10
-11 2 -18 8 -5 17 -8 21 -5 4 2 2 -9 -4 -26 -9 -23 -17 -30 -39 -30 -27 0 -33
-8 -29 -39 2 -7 -3 -10 -9 -6 -6 4 -9 13 -7 19 3 7 1 19 -4 27 -7 12 -12 12
-31 0 -14 -8 -7 3 16 28 22 22 48 44 58 47 10 3 16 10 13 15 -3 5 1 6 10 2 13
-5 14 -7 3 -14z m-2230 -85 c40 -53 42 -66 12 -74 -15 -4 -24 -13 -24 -23 1
-9 -2 -15 -6 -12 -4 2 -10 34 -14 70 -4 35 -9 73 -13 82 -7 22 2 13 45 -43z
m2002 -8 c0 -3 -4 -8 -10 -11 -5 -3 -10 -1 -10 4 0 6 5 11 10 11 6 0 10 -2 10
-4z m202 -18 c-7 -7 -12 -8 -12 -2 0 14 12 26 19 19 2 -3 -1 -11 -7 -17z
m-1024 -69 c8 -30 7 -39 -1 -36 -7 2 -29 10 -49 18 -21 7 -38 16 -38 19 0 6
58 38 71 39 4 1 11 -17 17 -40z m827 21 c3 -5 -1 -10 -10 -10 -9 0 -13 5 -10
10 3 6 8 10 10 10 2 0 7 -4 10 -10z m-1555 -74 c38 -23 41 -24 18 -4 -15 13
-38 31 -53 41 -14 11 -24 21 -22 23 7 8 278 -82 278 -92 1 -5 5 -15 11 -21 15
-18 -28 -17 -82 2 -23 8 -49 15 -56 15 -22 0 -16 -15 11 -30 44 -24 20 -21
-68 9 -47 16 -88 27 -90 24 -6 -5 -27 63 -27 86 0 9 6 7 18 -6 9 -11 37 -32
62 -47z m-524 39 c-3 -8 0 -15 6 -15 6 0 9 -3 5 -6 -10 -11 -26 6 -20 21 3 8
7 15 10 15 3 0 3 -7 -1 -15z m1217 -36 c20 -7 37 -15 37 -19 0 -6 -84 -50 -96
-50 -7 0 -34 66 -34 84 0 15 0 15 93 -15z m434 9 c30 -28 29 -34 -7 -53 -43
-22 -37 -33 21 -41 l52 -7 -28 -15 c-17 -9 -41 -12 -63 -9 -24 4 -47 0 -74
-14 l-40 -20 -24 22 c-13 12 -24 26 -24 30 0 8 150 129 159 129 3 0 15 -10 28
-22z m333 13 c0 -5 -7 -12 -16 -15 -14 -5 -15 -4 -4 9 14 17 20 19 20 6z
m-1935 -25 c12 -11 10 -13 -11 -13 -24 0 -30 7 -17 20 9 10 13 9 28 -7z m1895
-1 c0 -2 -10 -9 -22 -15 -22 -11 -22 -10 -4 4 21 17 26 19 26 11z m-1829 -61
c13 -25 35 -52 49 -60 24 -14 25 -15 1 -8 -15 4 -21 2 -17 -4 3 -6 2 -13 -3
-16 -5 -3 -11 1 -15 9 -3 8 0 15 7 15 7 0 4 5 -6 11 -9 5 -22 7 -27 4 -6 -3
-10 -1 -10 4 0 6 -10 21 -21 32 -17 17 -19 23 -8 30 8 5 10 9 6 9 -11 0 2 20
13 20 5 0 19 -21 31 -46z m741 20 c46 -23 56 -25 85 -15 31 11 36 10 73 -21
22 -18 40 -36 40 -40 0 -6 -82 -53 -151 -86 -4 -1 -12 10 -18 26 -7 16 -37 53
-67 83 -59 58 -65 70 -32 61 14 -3 19 -2 14 6 -11 17 -1 15 56 -14z m1242 -26
c-33 -65 -38 -71 -28 -33 6 28 40 85 50 85 2 0 -8 -24 -22 -52z m-2054 18 c0
-8 -4 -17 -8 -20 -4 -2 -8 4 -8 15 0 10 4 19 8 19 4 0 8 -6 8 -14z m238 -93
c-5 -7 -7 -17 -4 -22 4 -5 -7 -3 -24 5 -32 16 -40 34 -16 34 8 0 18 10 22 22
l6 21 13 -24 c9 -16 10 -28 3 -36z m47 17 c3 -5 -1 -10 -9 -10 -9 0 -16 5 -16
10 0 6 4 10 9 10 6 0 13 -4 16 -10z m1110 -33 c-5 -20 -15 -28 -41 -33 -51 -9
-54 3 -9 41 43 36 60 33 50 -8z m-1323 -9 c-13 -13 -24 5 -16 27 7 16 8 16 17
0 6 -11 6 -20 -1 -27z m38 -2 c0 -3 -4 -8 -10 -11 -5 -3 -10 -1 -10 4 0 6 5
11 10 11 6 0 10 -2 10 -4z m-29 -30 c7 4 9 3 6 -3 -4 -6 2 -18 13 -28 37 -33
20 -37 -20 -5 -22 17 -40 36 -40 42 0 6 6 6 15 -2 8 -6 20 -8 26 -4z m180 -3
c13 -16 12 -17 -3 -4 -17 13 -22 21 -14 21 2 0 10 -8 17 -17z m1026 -10 c-9
-9 -19 -14 -23 -11 -10 10 6 28 24 28 15 0 15 -1 -1 -17z m949 -15 c-18 -26
-22 -17 -5 14 6 11 13 17 16 15 3 -3 -2 -16 -11 -29z m-590 0 c0 -12 -6 -23
-12 -25 -7 -2 -10 6 -7 22 6 31 21 33 19 3z m-426 -23 c-5 -7 -32 -24 -58 -38
-49 -27 -49 -27 -67 -7 -10 11 -16 22 -14 23 2 2 33 15 69 29 45 18 67 23 72
15 4 -6 3 -16 -2 -22z m-360 -10 c13 -16 3 -20 -24 -9 -9 3 -13 10 -10 15 8
13 20 11 34 -6z m750 6 c0 -13 -14 -21 -75 -47 -45 -20 -50 -21 -62 -5 -11 14
-12 13 -13 -8 0 -18 -3 -21 -13 -12 -11 8 -16 5 -25 -14 -14 -30 -52 -35 -52
-6 0 11 -2 26 -5 34 -5 10 12 17 67 27 40 8 88 14 106 15 18 1 38 7 44 13 14
14 28 16 28 3z m-1260 -36 c11 -13 10 -14 -4 -9 -9 3 -16 10 -16 15 0 13 6 11
20 -6z m306 -91 c67 -64 83 -84 69 -84 -2 0 -18 13 -34 29 -16 16 -38 35 -48
43 -10 7 -22 21 -28 31 -5 10 -22 26 -37 35 -26 15 -28 15 -51 -6 l-24 -23 -6
23 c-4 14 0 29 10 40 15 17 17 17 46 0 16 -9 63 -49 103 -88z m184 90 c24 -15
27 -20 19 -47 -8 -28 -7 -29 19 -22 96 24 120 -7 30 -39 l-57 -20 -28 24 -28
25 23 -27 24 -26 -22 -22 c-14 -14 -28 -19 -43 -15 -27 8 -130 113 -122 125 7
11 72 1 107 -16 23 -12 26 -12 24 2 -1 8 -15 24 -31 34 l-29 19 24 10 c36 14
59 13 90 -5z m239 -18 c15 -18 2 -27 -27 -19 -24 6 -29 19 -9 26 20 9 24 8 36
-7z m241 -5 c0 -5 -11 -12 -24 -15 -13 -3 -32 -9 -43 -12 -10 -3 -4 3 12 15
31 22 55 27 55 12z m-1460 -152 c28 -32 48 -59 45 -59 -13 0 -68 52 -96 90
-42 58 -9 38 51 -31z m795 33 c-3 -3 -11 0 -18 7 -9 10 -8 11 6 5 10 -3 15 -9
12 -12z m58 -36 c44 -20 46 -26 10 -26 -18 1 -35 10 -47 27 -11 14 -15 24 -10
21 5 -2 26 -12 47 -22z m-823 -161 c0 -8 -9 -15 -20 -15 -11 0 -20 7 -20 15 0
8 9 15 20 15 11 0 20 -7 20 -15z m712 -18 c15 -12 26 -23 23 -25 -11 -12 -72
11 -88 34 l-19 25 29 -7 c15 -4 40 -16 55 -27z m45 -173 c-3 -3 -12 -4 -19 -1
-8 3 -5 6 6 6 11 1 17 -2 13 -5z m303 -178 c0 -3 -4 -8 -10 -11 -5 -3 -10 -1
-10 4 0 6 5 11 10 11 6 0 10 -2 10 -4z"/>
<path d="M3044 2836 c-160 -59 -243 -96 -407 -185 -114 -62 -207 -118 -207
-124 1 -7 13 -36 28 -65 l28 -53 234 149 c209 133 252 156 385 207 83 31 154
61 160 66 5 5 15 9 21 9 7 0 25 5 41 11 l28 11 -45 23 c-25 13 -49 24 -55 24
-5 0 -100 -33 -211 -73z"/>
<path d="M2670 2801 c-69 -21 -201 -71 -293 -112 l-168 -74 -129 -180 c-70
-99 -126 -182 -125 -183 2 -2 73 43 157 100 84 58 180 123 213 145 33 22 155
91 270 153 116 62 211 113 211 114 1 1 4 18 8 39 5 27 4 37 -6 36 -7 0 -69
-18 -138 -38z"/>
<path d="M1120 1700 c0 -5 5 -10 11 -10 5 0 7 5 4 10 -3 6 -8 10 -11 10 -2 0
-4 -4 -4 -10z"/>
<path d="M1301 1354 c0 -11 3 -14 6 -6 3 7 2 16 -1 19 -3 4 -6 -2 -5 -13z"/>
<path d="M3704 1418 c-4 -7 -3 -8 5 -4 6 4 18 2 26 -4 9 -7 15 -8 15 -2 0 5
-7 13 -16 16 -21 8 -22 8 -30 -6z"/>
<path d="M1516 1175 c-6 -16 13 -55 26 -55 12 0 9 10 -7 26 -8 8 -12 21 -9 29
4 8 4 15 1 15 -3 0 -8 -7 -11 -15z"/>
<path d="M1292 4969 c-7 -11 -17 -17 -22 -14 -6 3 -10 -1 -10 -9 0 -9 5 -16
10 -16 6 0 10 5 10 10 0 6 6 10 14 10 19 0 31 19 19 31 -5 5 -14 0 -21 -12z"/>
<path d="M678 4793 c7 -3 16 -2 19 1 4 3 -2 6 -13 5 -11 0 -14 -3 -6 -6z"/>
<path d="M140 4459 c0 -8 5 -21 10 -29 8 -12 9 -10 7 7 -4 26 -17 43 -17 22z"/>
<path d="M2160 4055 c-69 -12 -174 -37 -235 -55 -60 -18 -119 -33 -129 -32
-10 1 -37 -7 -58 -18 -21 -10 -53 -22 -69 -25 -22 -5 -28 -10 -20 -18 7 -7 22
-7 49 1 48 15 55 15 47 2 -15 -24 189 8 344 55 45 13 106 29 137 34 30 6 62
17 70 25 8 8 34 18 59 22 55 8 59 24 8 24 -21 0 -47 2 -58 4 -11 2 -76 -6
-145 -19z"/>
<path d="M4500 4045 c0 -8 5 -15 10 -15 6 0 10 7 10 15 0 8 -4 15 -10 15 -5 0
-10 -7 -10 -15z"/>
<path d="M2350 4013 c0 -6 -10 -13 -22 -15 -13 -2 -24 -11 -26 -21 -3 -16 1
-17 40 -12 61 9 79 15 73 26 -4 5 4 13 17 18 31 13 11 13 -32 1 -25 -7 -36 -7
-42 3 -6 9 -8 9 -8 0z"/>
<path d="M2711 3987 c-35 -7 -41 -11 -29 -18 23 -13 219 -24 254 -14 29 7 29
7 -16 21 -59 18 -154 23 -209 11z"/>
<path d="M4510 3980 c0 -5 5 -10 11 -10 5 0 7 5 4 10 -3 6 -8 10 -11 10 -2 0
-4 -4 -4 -10z"/>
<path d="M3144 3882 c3 -5 45 -21 93 -37 48 -15 93 -34 99 -41 10 -13 181 -41
191 -31 3 3 -12 9 -32 13 -43 8 -74 34 -72 60 2 13 -10 21 -38 30 -45 14 -249
19 -241 6z"/>
<path d="M1410 3815 c-18 -14 -30 -25 -25 -25 5 0 0 -7 -11 -15 -17 -13 -15
-13 21 -3 61 18 77 31 62 52 -11 15 -15 15 -47 -9z"/>
<path d="M2452 3810 c-57 -11 -115 -23 -130 -29 -24 -8 -21 -10 28 -12 30 -1
69 -2 85 -3 34 -3 168 19 185 29 16 10 -15 35 -42 34 -13 -1 -69 -9 -126 -19z"/>
<path d="M2865 3821 c-12 -21 2 -25 98 -28 50 -1 118 -6 149 -9 31 -4 70 -3
85 1 l28 7 -25 10 c-14 5 -63 11 -110 13 -47 2 -115 7 -151 11 -47 5 -68 3
-74 -5z"/>
<path d="M2175 3763 c-91 -11 -321 -46 -324 -49 -2 -2 8 -4 23 -4 40 0 25 -15
-62 -59 -167 -86 -208 -111 -182 -111 14 0 104 14 201 31 138 25 176 35 175
47 -1 9 33 30 94 58 52 24 87 44 78 44 -29 0 -20 18 12 25 29 6 53 26 28 24
-7 -1 -26 -4 -43 -6z m-68 -59 c-3 -3 -12 -4 -19 -1 -8 3 -5 6 6 6 11 1 17 -2
13 -5z"/>
<path d="M2378 3743 c7 -3 16 -2 19 1 4 3 -2 6 -13 5 -11 0 -14 -3 -6 -6z"/>
<path d="M2850 3741 c-21 -6 -16 -10 39 -30 57 -20 69 -22 125 -12 35 6 83 11
107 11 89 0 69 17 -28 23 -201 13 -219 14 -243 8z"/>
<path d="M1255 3710 c-3 -5 -2 -10 4 -10 5 0 13 5 16 10 3 6 2 10 -4 10 -5 0
-13 -4 -16 -10z"/>
<path d="M1740 3710 c-24 -15 -7 -17 35 -4 38 12 38 12 10 13 -16 0 -37 -3
-45 -9z"/>
<path d="M3527 3714 c-14 -14 -6 -22 38 -34 50 -14 65 -8 49 18 -11 17 -74 29
-87 16z"/>
<path d="M1675 3680 l-20 -9 20 0 c11 0 27 4 35 9 13 9 13 10 0 9 -8 0 -24 -4
-35 -9z"/>
<path d="M3635 3670 c3 -5 8 -10 11 -10 2 0 4 5 4 10 0 6 -5 10 -11 10 -5 0
-7 -4 -4 -10z"/>
<path d="M1615 3660 c-3 -5 1 -10 9 -10 8 0 18 5 21 10 3 6 -1 10 -9 10 -8 0
-18 -4 -21 -10z"/>
<path d="M1150 3638 c0 -6 -3 -8 -6 -5 -4 4 -19 -1 -33 -11 -14 -9 -35 -22
-46 -28 -19 -10 -149 -254 -136 -254 4 0 45 58 91 130 56 85 94 133 112 140
26 12 46 40 28 40 -6 0 -10 -5 -10 -12z"/>
<path d="M1580 3640 c0 -5 5 -10 11 -10 5 0 7 5 4 10 -3 6 -8 10 -11 10 -2 0
-4 -4 -4 -10z"/>
<path d="M2566 3589 c-65 -32 -112 -61 -105 -63 86 -29 126 -42 194 -62 l80
-25 88 22 c48 12 87 25 87 30 0 5 -5 9 -11 9 -5 0 -7 5 -4 10 3 6 24 10 46 10
50 0 44 12 -18 35 -26 9 -87 35 -136 56 -48 22 -90 39 -95 38 -4 0 -60 -27
-126 -60z"/>
<path d="M1550 3630 c0 -5 5 -10 11 -10 5 0 7 5 4 10 -3 6 -8 10 -11 10 -2 0
-4 -4 -4 -10z"/>
<path d="M2028 3613 c6 -2 18 -2 25 0 6 3 1 5 -13 5 -14 0 -19 -2 -12 -5z"/>
<path d="M1289 3480 c-24 -12 -51 -42 -78 -86 -55 -87 -123 -167 -131 -154 -4
6 -13 -9 -20 -32 -8 -24 -20 -53 -28 -65 -16 -25 -9 -43 17 -43 17 0 248 281
302 368 l21 32 -24 0 c-12 -1 -39 -9 -59 -20z"/>
<path d="M702 3057 c-9 -10 -12 -49 -10 -128 l3 -114 14 117 c14 126 13 150
-7 125z"/>
<path d="M0 2710 c0 -5 5 -10 11 -10 5 0 7 5 4 10 -3 6 -8 10 -11 10 -2 0 -4
-4 -4 -10z"/>
<path d="M767 2659 c7 -7 15 -10 18 -7 3 3 -2 9 -12 12 -14 6 -15 5 -6 -5z"/>
<path d="M260 2581 c0 -6 5 -13 10 -16 6 -3 10 1 10 9 0 9 -4 16 -10 16 -5 0
-10 -4 -10 -9z"/>
<path d="M561 2474 c0 -11 3 -14 6 -6 3 7 2 16 -1 19 -3 4 -6 -2 -5 -13z"/>
<path d="M2386 322 c-3 -6 -1 -14 5 -17 15 -10 25 3 12 16 -7 7 -13 7 -17 1z"/>
</g>
</svg>
